<?xml version="1.0" encoding="UTF-8" ?>
<!DOCTYPE svg PUBLIC "-//W3C//DTD SVG 1.1//EN" "http://www.w3.org/Graphics/SVG/1.1/DTD/svg11.dtd">
<svg width="800pt" height="200pt" viewBox="0 0 800 200" version="1.1" xmlns="http://www.w3.org/2000/svg">
<path fill="#ffffff" d=" M 0.00 0.00 L 800.00 0.00 L 800.00 200.00 L 0.00 200.00 L 0.00 0.00 Z" />
<path fill="#ff4c4c" d=" M 489.23 61.21 C 495.42 59.52 502.89 60.66 507.27 65.67 C 511.40 70.43 512.85 76.83 513.52 82.94 C 514.27 91.09 514.23 99.33 513.25 107.46 C 512.41 113.57 510.88 119.99 506.64 124.68 C 499.48 131.80 485.46 130.71 480.25 121.76 C 476.03 114.66 475.42 106.15 475.03 98.09 C 474.89 89.83 475.07 81.37 477.64 73.44 C 479.43 67.94 483.35 62.63 489.23 61.21 Z" />
<path fill="#ff4c4c" d=" M 146.75 61.75 C 158.00 61.74 169.25 61.74 180.50 61.75 C 180.50 62.69 180.50 64.56 180.50 65.50 C 170.67 65.51 160.84 65.50 151.01 65.50 C 150.99 74.17 151.00 82.83 151.00 91.50 C 158.42 91.50 165.83 91.49 173.25 91.51 C 173.25 92.44 173.25 94.31 173.25 95.25 C 165.83 95.26 158.42 95.25 151.01 95.25 C 150.99 106.17 151.01 117.08 151.00 128.00 C 149.58 128.00 148.16 127.99 146.75 127.99 C 146.75 105.91 146.74 83.83 146.75 61.75 Z" />
<path fill="#ff4c4c" d=" M 215.25 61.75 C 222.83 61.75 230.41 61.75 238.00 61.75 C 238.00 62.69 238.00 64.56 238.00 65.50 C 234.92 65.50 231.84 65.50 228.76 65.51 C 228.75 85.09 228.75 104.66 228.76 124.24 C 231.84 124.25 234.92 124.24 238.00 124.25 C 237.99 125.50 238.00 126.75 238.00 128.00 C 230.41 128.00 222.83 128.01 215.24 127.99 C 215.24 126.74 215.25 125.50 215.25 124.25 C 218.33 124.24 221.41 124.25 224.49 124.24 C 224.50 104.66 224.50 85.09 224.49 65.51 C 221.41 65.50 218.33 65.50 215.25 65.49 C 215.25 64.56 215.25 62.69 215.25 61.75 Z" />
<path fill="#ff4c4c" d=" M 277.50 128.00 C 277.50 105.92 277.49 83.84 277.51 61.75 C 279.55 61.75 281.61 61.75 283.66 61.75 C 291.31 80.73 298.74 99.81 306.47 118.77 C 306.54 99.76 306.47 80.76 306.50 61.75 C 307.92 61.75 309.33 61.75 310.75 61.75 C 310.76 84.08 310.76 106.41 310.75 128.74 C 309.28 128.75 307.82 128.76 306.36 128.77 C 298.15 108.33 290.04 87.85 281.78 67.43 C 281.72 87.62 281.77 107.81 281.75 128.00 C 280.33 128.00 278.92 128.00 277.50 128.00 Z" />
<path fill="#ff4c4c" d=" M 344.01 61.75 C 350.01 61.81 356.03 61.62 362.03 61.82 C 368.94 62.08 375.21 66.97 377.57 73.40 C 379.86 79.64 380.25 86.37 380.51 92.96 C 380.53 101.12 380.03 109.50 377.06 117.19 C 374.90 123.02 369.19 127.12 363.06 127.75 C 356.73 128.32 350.35 127.86 344.00 128.00 C 344.00 105.92 343.99 83.83 344.01 61.75 Z" />
<path fill="#ff4c4c" d=" M 406.85 61.74 C 408.47 61.75 410.10 61.75 411.73 61.76 C 416.35 72.81 421.01 83.85 425.56 94.93 C 430.21 83.87 434.86 72.82 439.51 61.76 C 441.13 61.75 442.75 61.74 444.39 61.73 C 438.97 74.48 433.12 87.06 427.92 99.89 C 427.51 109.24 427.88 118.63 427.75 128.00 C 426.33 128.00 424.91 128.00 423.50 127.99 C 423.49 119.30 423.51 110.61 423.51 101.92 C 423.65 99.30 422.21 97.02 421.24 94.69 C 416.42 83.72 411.65 72.73 406.85 61.74 Z" />
<path fill="#ff4c4c" d=" M 544.01 61.75 C 545.41 61.75 546.83 61.75 548.25 61.76 C 548.26 77.52 548.25 93.29 548.25 109.05 C 548.27 113.98 549.27 119.43 553.10 122.87 C 557.74 126.56 565.11 126.50 569.72 122.80 C 573.30 119.66 574.30 114.62 574.26 110.07 C 574.24 93.96 574.24 77.86 574.25 61.75 C 575.66 61.75 577.07 61.75 578.50 61.75 C 578.52 77.84 578.48 93.93 578.52 110.02 C 578.55 113.58 577.99 117.22 576.32 120.40 C 572.68 127.26 563.92 130.92 556.50 128.52 C 549.43 126.43 543.94 119.55 544.02 112.09 C 543.97 95.31 544.01 78.53 544.01 61.75 Z" />
<path fill="#ff4c4c" d=" M 614.01 61.75 C 621.64 62.21 629.59 60.59 636.98 63.04 C 645.63 66.11 648.71 76.73 646.68 84.99 C 645.38 91.28 640.60 96.41 634.61 98.58 C 640.53 108.37 646.35 118.22 652.31 127.98 C 650.50 127.99 648.70 128.00 646.91 128.01 C 641.37 118.54 635.98 108.98 630.45 99.50 C 626.38 99.50 622.32 99.50 618.25 99.51 C 618.25 109.00 618.25 118.50 618.25 127.99 C 616.83 127.99 615.41 128.00 614.00 128.00 C 614.00 105.92 613.99 83.83 614.01 61.75 Z" />
<path fill="#ffffff" d=" M 491.42 64.52 C 495.31 63.74 499.83 64.25 502.79 67.14 C 506.54 70.75 507.77 76.08 508.59 81.03 C 509.79 89.31 509.79 97.75 508.95 106.06 C 508.30 111.28 507.36 116.78 504.11 121.07 C 499.60 127.40 488.67 127.01 484.55 120.43 C 480.60 114.41 480.04 106.94 479.57 99.94 C 479.36 91.52 479.37 82.89 481.88 74.77 C 483.33 70.23 486.43 65.53 491.42 64.52 Z" />
<path fill="#ffffff" d=" M 348.25 65.51 C 354.47 65.76 361.03 64.59 366.93 67.09 C 372.14 69.48 374.34 75.38 375.13 80.69 C 376.34 89.37 376.29 98.23 375.42 106.95 C 374.67 112.74 373.04 119.58 367.36 122.45 C 361.39 125.22 354.61 123.97 348.26 124.24 C 348.25 104.66 348.25 85.08 348.25 65.51 Z" />
<path fill="#ffffff" d=" M 618.25 65.50 C 625.30 66.11 634.12 63.39 639.51 69.37 C 644.86 76.39 643.73 88.15 636.45 93.46 C 631.10 97.18 624.30 95.32 618.25 95.75 C 618.25 85.66 618.25 75.58 618.25 65.50 Z" />
<path fill="#242415" d=" M 388.61 160.17 C 397.53 159.93 406.46 159.94 415.38 160.17 C 416.69 161.45 417.88 162.87 418.27 164.71 C 419.13 168.03 421.47 170.80 424.38 172.53 C 426.87 173.67 429.72 174.10 431.60 176.29 C 431.57 177.40 431.55 178.50 431.54 179.60 C 430.78 180.30 430.01 181.01 429.26 181.71 C 426.39 182.34 423.40 183.15 421.28 185.31 C 418.89 187.37 418.33 190.59 417.57 193.49 C 416.80 194.25 416.04 195.01 415.29 195.79 C 406.41 196.12 397.50 196.04 388.62 195.83 C 385.22 193.44 386.00 188.67 383.18 185.87 C 381.00 183.35 377.74 182.23 374.52 181.85 C 373.71 181.08 372.90 180.31 372.10 179.54 C 372.10 178.51 372.10 177.49 372.10 176.46 C 372.89 175.69 373.68 174.92 374.48 174.16 C 379.63 173.58 384.29 169.87 385.64 164.81 C 386.06 162.94 387.26 161.48 388.61 160.17 Z" />
<path fill="#ffffff" d=" M 389.96 164.01 C 397.98 164.00 406.01 164.00 414.04 164.01 C 415.02 171.16 421.28 177.28 428.48 178.00 C 421.17 178.41 414.42 184.55 414.07 192.00 C 406.02 192.00 397.97 192.00 389.93 192.00 C 389.58 184.56 382.83 178.40 375.52 178.03 C 382.71 177.26 388.98 171.17 389.96 164.01 Z" />
</svg>
